<svg xmlns="http://www.w3.org/2000/svg" viewBox="0 10.90999984741211 227.1199951171875 44.13999938964844" data-asc="1.0087890625" width="227.1199951171875" height="44.13999938964844"><defs/><g fill="currentColor"><g transform="translate(0, 0)"><path d="M31.71 10.91L31.71 50.44L22.73 50.44L22.73 23.75L19.14 50.44L12.77 50.44L8.98 24.37L8.98 50.44L0 50.44L0 10.91L13.31 10.91Q13.89 14.48 14.55 19.31L15.97 29.37L18.31 10.91L31.71 10.91ZM44.36 30.59L35.11 30.59L35.11 28.42Q35.11 24.66 35.97 22.62Q36.84 20.58 39.45 19.02Q42.07 17.46 46.24 17.46Q51.25 17.46 53.78 19.23Q56.32 21.00 56.84 23.57Q57.35 26.15 57.35 34.18L57.35 50.44L47.75 50.44L47.75 47.56Q46.85 49.29 45.42 50.16Q43.99 51.03 42.02 51.03Q39.43 51.03 37.27 49.57Q35.11 48.12 35.11 43.21L35.11 40.55Q35.11 36.91 36.25 35.60Q37.40 34.28 41.94 32.52Q46.80 30.62 47.14 29.96Q47.49 29.30 47.49 27.27Q47.49 24.73 47.11 23.96Q46.73 23.19 45.85 23.19Q44.85 23.19 44.60 23.84Q44.36 24.49 44.36 27.20L44.36 30.59M47.49 35.03Q45.12 36.77 44.74 37.94Q44.36 39.11 44.36 41.31Q44.36 43.82 44.69 44.56Q45.02 45.29 46.00 45.29Q46.92 45.29 47.20 44.71Q47.49 44.14 47.49 41.70L47.49 35.03ZM70.78 18.04L70.61 20.90Q71.92 19.17 73.51 18.31Q75.10 17.46 76.98 17.46Q79.27 17.46 80.94 18.69Q82.62 19.92 83.03 21.53Q83.45 23.14 83.45 27.00L83.45 40.65Q83.45 45.07 82.92 46.94Q82.40 48.80 80.77 49.91Q79.15 51.03 76.86 51.03Q75.02 51.03 73.46 50.17Q71.90 49.32 70.61 47.63L70.61 55.05L60.74 55.05L60.74 18.04L70.78 18.04M73.58 27.47Q73.58 24.46 73.36 23.83Q73.14 23.19 72.14 23.19Q71.17 23.19 70.89 23.93Q70.61 24.66 70.61 27.47L70.61 40.89Q70.61 43.82 70.90 44.56Q71.19 45.29 72.17 45.29Q73.12 45.29 73.35 44.62Q73.58 43.95 73.58 41.36L73.58 27.47ZM96.85 10.91L96.85 50.44L86.69 50.44L86.69 10.91L96.85 10.91ZM122.73 34.81L109.96 34.81L109.96 41.82Q109.96 44.02 110.28 44.65Q110.60 45.29 111.50 45.29Q112.62 45.29 113.00 44.45Q113.38 43.60 113.38 41.19L113.38 36.91L122.73 36.91L122.73 39.31Q122.73 42.31 122.35 43.92Q121.97 45.53 120.58 47.36Q119.19 49.19 117.05 50.11Q114.92 51.03 111.69 51.03Q108.57 51.03 106.18 50.12Q103.78 49.22 102.45 47.64Q101.12 46.07 100.61 44.18Q100.10 42.29 100.10 38.67L100.10 29.22Q100.10 24.98 101.25 22.52Q102.39 20.07 105.00 18.76Q107.62 17.46 111.01 17.46Q115.16 17.46 117.86 19.03Q120.56 20.61 121.64 23.21Q122.73 25.81 122.73 30.52L122.73 34.81M112.84 29.54L112.84 27.17Q112.84 24.66 112.57 23.93Q112.30 23.19 111.47 23.19Q110.45 23.19 110.21 23.82Q109.96 24.44 109.96 27.17L109.96 29.54L112.84 29.54ZM126.25 10.91L136.50 10.91Q141.36 10.91 143.86 11.67Q146.36 12.43 147.90 14.73Q149.44 17.04 149.44 22.17Q149.44 25.63 148.35 27.00Q147.27 28.37 144.07 29.10Q147.63 29.91 148.90 31.77Q150.17 33.64 150.17 37.50L150.17 41.16Q150.17 45.17 149.26 47.09Q148.34 49.02 146.34 49.73Q144.34 50.44 138.13 50.44L126.25 50.44L126.25 10.91M136.52 17.68L136.52 26.46Q137.18 26.44 137.55 26.44Q139.06 26.44 139.48 25.70Q139.89 24.95 139.89 21.44Q139.89 19.58 139.55 18.84Q139.21 18.09 138.66 17.90Q138.11 17.70 136.52 17.68M136.52 32.62L136.52 43.68Q138.70 43.60 139.29 42.99Q139.89 42.38 139.89 39.99L139.89 36.30Q139.89 33.76 139.36 33.23Q138.82 32.69 136.52 32.62ZM175.88 29.42L175.88 37.35Q175.88 41.72 175.44 43.76Q175 45.80 173.56 47.57Q172.12 49.34 169.86 50.18Q167.60 51.03 164.67 51.03Q161.40 51.03 159.13 50.31Q156.86 49.58 155.60 48.13Q154.35 46.68 153.81 44.62Q153.27 42.55 153.27 38.43L153.27 30.13Q153.27 25.61 154.25 23.07Q155.22 20.53 157.76 18.99Q160.30 17.46 164.26 17.46Q167.58 17.46 169.96 18.44Q172.34 19.43 173.63 21.02Q174.93 22.61 175.40 24.29Q175.88 25.98 175.88 29.42M166.02 26.98Q166.02 24.49 165.75 23.84Q165.48 23.19 164.60 23.19Q163.72 23.19 163.43 23.84Q163.13 24.49 163.13 26.98L163.13 41.60Q163.13 43.90 163.43 44.59Q163.72 45.29 164.58 45.29Q165.45 45.29 165.73 44.65Q166.02 44.02 166.02 41.92L166.02 26.98ZM201.44 29.42L201.44 37.35Q201.44 41.72 201.00 43.76Q200.56 45.80 199.12 47.57Q197.68 49.34 195.42 50.18Q193.16 51.03 190.23 51.03Q186.96 51.03 184.69 50.31Q182.42 49.58 181.16 48.13Q179.91 46.68 179.37 44.62Q178.83 42.55 178.83 38.43L178.83 30.13Q178.83 25.61 179.81 23.07Q180.79 20.53 183.33 18.99Q185.86 17.46 189.82 17.46Q193.14 17.46 195.52 18.44Q197.90 19.43 199.19 21.02Q200.49 22.61 200.96 24.29Q201.44 25.98 201.44 29.42M191.58 26.98Q191.58 24.49 191.31 23.84Q191.04 23.19 190.16 23.19Q189.28 23.19 188.99 23.84Q188.70 24.49 188.70 26.98L188.70 41.60Q188.70 43.90 188.99 44.59Q189.28 45.29 190.14 45.29Q191.02 45.29 191.30 44.65Q191.58 44.02 191.58 41.92L191.58 26.98ZM225.93 18.04L221.92 30.96L227.12 50.44L217.63 50.44L214.55 36.33L214.55 50.44L204.69 50.44L204.69 10.91L214.55 10.91L214.55 27.51L217.63 18.04L225.93 18.04Z"/></g></g></svg>