<svg xmlns="http://www.w3.org/2000/svg" viewBox="0 3.490000009536743 226.8300018310547 42.89999771118164" data-asc="0.75" width="226.8300018310547" height="42.89999771118164"><defs/><g fill="currentColor"><g transform="translate(0, 0)"><path d="M34.35 36.87Q34.35 37.06 34.25 37.21Q34.16 37.35 33.91 37.44Q33.67 37.52 33.29 37.59Q32.91 37.65 32.30 37.65Q31.74 37.65 31.34 37.59Q30.93 37.52 30.70 37.44Q30.47 37.35 30.37 37.21Q30.27 37.06 30.27 36.87L30.27 9.35L30.22 9.35L18.97 36.99Q18.90 37.16 18.76 37.28Q18.63 37.40 18.37 37.49Q18.12 37.57 17.76 37.61Q17.41 37.65 16.92 37.65Q16.41 37.65 16.04 37.60Q15.67 37.55 15.43 37.46Q15.19 37.38 15.05 37.26Q14.92 37.13 14.87 36.99L4.10 9.35L4.08 9.35L4.08 36.87Q4.08 37.06 3.98 37.21Q3.88 37.35 3.64 37.44Q3.39 37.52 3.00 37.59Q2.61 37.65 2.00 37.65Q1.42 37.65 1.03 37.59Q0.63 37.52 0.40 37.44Q0.17 37.35 0.09 37.21Q0 37.06 0 36.87L0 7.81Q0 6.79 0.54 6.35Q1.07 5.91 1.73 5.91L4.27 5.91Q5.05 5.91 5.64 6.05Q6.23 6.20 6.67 6.52Q7.10 6.84 7.40 7.32Q7.69 7.81 7.91 8.47L17.07 31.35L17.19 31.35L26.71 8.54Q26.98 7.81 27.29 7.30Q27.61 6.79 27.99 6.48Q28.37 6.18 28.83 6.04Q29.30 5.91 29.91 5.91L32.57 5.91Q32.93 5.91 33.26 6.02Q33.59 6.13 33.83 6.36Q34.06 6.59 34.20 6.95Q34.35 7.30 34.35 7.81L34.35 36.87ZM58.84 36.91Q58.84 37.21 58.64 37.35Q58.45 37.50 58.11 37.57Q57.76 37.65 57.10 37.65Q56.47 37.65 56.09 37.57Q55.71 37.50 55.54 37.35Q55.37 37.21 55.37 36.91L55.37 34.72Q53.93 36.25 52.16 37.11Q50.39 37.96 48.41 37.96Q46.68 37.96 45.28 37.51Q43.87 37.06 42.88 36.21Q41.89 35.35 41.35 34.11Q40.80 32.86 40.80 31.27Q40.80 29.42 41.55 28.05Q42.31 26.68 43.73 25.78Q45.14 24.88 47.19 24.43Q49.24 23.97 51.81 23.97L54.83 23.97L54.83 22.27Q54.83 21.00 54.57 20.02Q54.30 19.04 53.70 18.40Q53.10 17.75 52.15 17.42Q51.20 17.09 49.80 17.09Q48.32 17.09 47.13 17.44Q45.95 17.80 45.06 18.23Q44.17 18.65 43.57 19.01Q42.97 19.36 42.68 19.36Q42.48 19.36 42.33 19.26Q42.19 19.17 42.08 18.97Q41.97 18.77 41.92 18.47Q41.87 18.16 41.87 17.80Q41.87 17.19 41.96 16.83Q42.04 16.48 42.37 16.16Q42.70 15.84 43.51 15.42Q44.31 14.99 45.36 14.64Q46.41 14.28 47.66 14.05Q48.90 13.82 50.17 13.82Q52.54 13.82 54.20 14.36Q55.86 14.89 56.88 15.93Q57.91 16.97 58.37 18.51Q58.84 20.04 58.84 22.09L58.84 36.91M54.83 26.88L51.39 26.88Q49.73 26.88 48.51 27.16Q47.29 27.44 46.48 27.99Q45.68 28.54 45.30 29.31Q44.92 30.08 44.92 31.08Q44.92 32.79 46.01 33.80Q47.09 34.81 49.05 34.81Q50.63 34.81 51.99 34.01Q53.34 33.20 54.83 31.54L54.83 26.88ZM86.45 25.56Q86.45 28.44 85.83 30.74Q85.21 33.03 84.00 34.63Q82.79 36.23 81.01 37.10Q79.22 37.96 76.93 37.96Q75.95 37.96 75.12 37.77Q74.29 37.57 73.50 37.16Q72.71 36.74 71.92 36.11Q71.14 35.47 70.26 34.62L70.26 45.61Q70.26 45.80 70.17 45.95Q70.07 46.09 69.85 46.19Q69.63 46.29 69.24 46.34Q68.85 46.39 68.24 46.39Q67.65 46.39 67.26 46.34Q66.87 46.29 66.64 46.19Q66.41 46.09 66.32 45.95Q66.24 45.80 66.24 45.61L66.24 14.92Q66.24 14.70 66.31 14.56Q66.38 14.43 66.60 14.33Q66.82 14.23 67.16 14.20Q67.50 14.16 67.99 14.16Q68.51 14.16 68.84 14.20Q69.17 14.23 69.38 14.33Q69.60 14.43 69.69 14.56Q69.78 14.70 69.78 14.92L69.78 17.87Q70.78 16.85 71.70 16.09Q72.63 15.33 73.57 14.83Q74.51 14.33 75.50 14.07Q76.49 13.82 77.59 13.82Q79.98 13.82 81.67 14.75Q83.35 15.67 84.41 17.29Q85.47 18.90 85.96 21.03Q86.45 23.17 86.45 25.56M82.20 26.03Q82.20 24.34 81.95 22.77Q81.69 21.19 81.07 19.97Q80.44 18.75 79.39 18.02Q78.34 17.29 76.78 17.29Q76.00 17.29 75.24 17.52Q74.49 17.75 73.71 18.25Q72.92 18.75 72.07 19.57Q71.22 20.39 70.26 21.58L70.26 30.32Q71.92 32.35 73.41 33.42Q74.90 34.50 76.54 34.50Q78.05 34.50 79.14 33.76Q80.22 33.03 80.90 31.81Q81.57 30.59 81.88 29.08Q82.20 27.56 82.20 26.03ZM96.53 36.89Q96.53 37.08 96.44 37.22Q96.34 37.35 96.12 37.45Q95.90 37.55 95.51 37.60Q95.12 37.65 94.51 37.65Q93.92 37.65 93.53 37.60Q93.14 37.55 92.91 37.45Q92.68 37.35 92.59 37.22Q92.50 37.08 92.50 36.89L92.50 4.27Q92.50 4.08 92.59 3.93Q92.68 3.78 92.91 3.69Q93.14 3.59 93.53 3.54Q93.92 3.49 94.51 3.49Q95.12 3.49 95.51 3.54Q95.90 3.59 96.12 3.69Q96.34 3.78 96.44 3.93Q96.53 4.08 96.53 4.27L96.53 36.89ZM122.73 24.95Q122.73 25.90 122.25 26.31Q121.78 26.71 121.17 26.71L106.76 26.71Q106.76 28.54 107.13 30.00Q107.50 31.47 108.35 32.52Q109.20 33.57 110.57 34.13Q111.94 34.69 113.92 34.69Q115.48 34.69 116.70 34.44Q117.92 34.18 118.81 33.86Q119.70 33.54 120.28 33.29Q120.85 33.03 121.14 33.03Q121.31 33.03 121.45 33.12Q121.58 33.20 121.66 33.37Q121.73 33.54 121.77 33.85Q121.80 34.16 121.80 34.59Q121.80 34.91 121.78 35.14Q121.75 35.38 121.72 35.56Q121.68 35.74 121.59 35.89Q121.51 36.04 121.37 36.17Q121.24 36.30 120.58 36.61Q119.92 36.91 118.87 37.21Q117.82 37.50 116.44 37.73Q115.06 37.96 113.50 37.96Q110.79 37.96 108.75 37.21Q106.71 36.45 105.32 34.96Q103.93 33.47 103.22 31.23Q102.51 28.98 102.51 26.00Q102.51 23.17 103.25 20.91Q103.98 18.65 105.36 17.08Q106.74 15.50 108.69 14.66Q110.64 13.82 113.06 13.82Q115.65 13.82 117.47 14.65Q119.29 15.48 120.46 16.88Q121.63 18.29 122.18 20.18Q122.73 22.07 122.73 24.22L122.73 24.95M118.68 23.75Q118.75 20.58 117.27 18.77Q115.80 16.97 112.89 16.97Q111.40 16.97 110.28 17.53Q109.16 18.09 108.40 19.02Q107.64 19.95 107.23 21.18Q106.81 22.41 106.76 23.75L118.68 23.75ZM150.15 28.44Q150.15 29.93 149.77 31.19Q149.39 32.45 148.71 33.45Q148.02 34.45 147.06 35.21Q146.09 35.96 144.89 36.47Q143.68 36.99 142.30 37.24Q140.92 37.50 139.14 37.50L130.88 37.50Q130.32 37.50 129.82 37.12Q129.32 36.74 129.32 35.79L129.32 7.62Q129.32 6.67 129.82 6.29Q130.32 5.91 130.88 5.91L138.06 5.91Q140.89 5.91 142.70 6.45Q144.51 6.98 145.72 8.01Q146.92 9.03 147.53 10.52Q148.14 12.01 148.14 13.89Q148.14 15.01 147.88 16.04Q147.61 17.07 147.08 17.93Q146.56 18.80 145.76 19.48Q144.97 20.17 143.95 20.61Q145.24 20.85 146.36 21.50Q147.49 22.14 148.33 23.14Q149.17 24.15 149.66 25.49Q150.15 26.83 150.15 28.44M143.82 14.31Q143.82 13.16 143.51 12.23Q143.19 11.30 142.50 10.66Q141.82 10.01 140.72 9.67Q139.62 9.33 137.82 9.33L133.47 9.33L133.47 19.56L138.26 19.56Q139.89 19.56 140.89 19.13Q141.89 18.70 142.55 17.98Q143.21 17.26 143.52 16.30Q143.82 15.33 143.82 14.31M145.73 28.69Q145.73 27.27 145.28 26.20Q144.82 25.12 143.96 24.39Q143.09 23.66 141.78 23.28Q140.48 22.90 138.50 22.90L133.47 22.90L133.47 34.03L139.58 34.03Q141.02 34.03 142.09 33.69Q143.16 33.35 143.98 32.68Q144.80 32.01 145.26 31.01Q145.73 30.00 145.73 28.69ZM176.49 25.66Q176.49 28.34 175.78 30.60Q175.07 32.86 173.67 34.50Q172.27 36.13 170.15 37.05Q168.04 37.96 165.26 37.96Q162.55 37.96 160.53 37.16Q158.52 36.35 157.18 34.81Q155.83 33.28 155.18 31.08Q154.52 28.88 154.52 26.10Q154.52 23.41 155.21 21.15Q155.91 18.90 157.31 17.26Q158.72 15.63 160.82 14.72Q162.92 13.82 165.72 13.82Q168.43 13.82 170.45 14.62Q172.46 15.43 173.80 16.97Q175.15 18.51 175.82 20.70Q176.49 22.90 176.49 25.66M172.24 25.93Q172.24 24.15 171.91 22.56Q171.58 20.97 170.83 19.78Q170.07 18.58 168.77 17.88Q167.48 17.19 165.55 17.19Q163.77 17.19 162.49 17.82Q161.21 18.46 160.38 19.62Q159.55 20.78 159.14 22.36Q158.74 23.95 158.74 25.83Q158.74 27.64 159.07 29.22Q159.40 30.81 160.17 31.99Q160.94 33.18 162.23 33.87Q163.53 34.57 165.45 34.57Q167.21 34.57 168.51 33.94Q169.80 33.30 170.63 32.15Q171.46 31.01 171.85 29.42Q172.24 27.83 172.24 25.93ZM202.86 25.66Q202.86 28.34 202.15 30.60Q201.44 32.86 200.04 34.50Q198.63 36.13 196.52 37.05Q194.41 37.96 191.63 37.96Q188.92 37.96 186.90 37.16Q184.89 36.35 183.54 34.81Q182.20 33.28 181.54 31.08Q180.88 28.88 180.88 26.10Q180.88 23.41 181.58 21.15Q182.28 18.90 183.68 17.26Q185.08 15.63 187.18 14.72Q189.28 13.82 192.09 13.82Q194.80 13.82 196.81 14.62Q198.83 15.43 200.17 16.97Q201.51 18.51 202.19 20.70Q202.86 22.90 202.86 25.66M198.61 25.93Q198.61 24.15 198.28 22.56Q197.95 20.97 197.19 19.78Q196.44 18.58 195.14 17.88Q193.85 17.19 191.92 17.19Q190.14 17.19 188.85 17.82Q187.57 18.46 186.74 19.62Q185.91 20.78 185.51 22.36Q185.11 23.95 185.11 25.83Q185.11 27.64 185.44 29.22Q185.77 30.81 186.54 31.99Q187.30 33.18 188.60 33.87Q189.89 34.57 191.82 34.57Q193.58 34.57 194.87 33.94Q196.17 33.30 197.00 32.15Q197.83 31.01 198.22 29.42Q198.61 27.83 198.61 25.93ZM226.83 36.87Q226.83 37.06 226.73 37.21Q226.64 37.35 226.40 37.45Q226.17 37.55 225.76 37.60Q225.34 37.65 224.71 37.65Q224.05 37.65 223.62 37.61Q223.19 37.57 222.90 37.49Q222.61 37.40 222.42 37.24Q222.24 37.08 222.09 36.87L212.82 24.71L212.82 36.89Q212.82 37.08 212.72 37.22Q212.62 37.35 212.40 37.45Q212.18 37.55 211.79 37.60Q211.40 37.65 210.79 37.65Q210.21 37.65 209.81 37.60Q209.42 37.55 209.19 37.45Q208.96 37.35 208.87 37.22Q208.79 37.08 208.79 36.89L208.79 4.27Q208.79 4.08 208.87 3.93Q208.96 3.78 209.19 3.69Q209.42 3.59 209.81 3.54Q210.21 3.49 210.79 3.49Q211.40 3.49 211.79 3.54Q212.18 3.59 212.40 3.69Q212.62 3.78 212.72 3.93Q212.82 4.08 212.82 4.27L212.82 24.15L221.12 15.01Q221.31 14.77 221.53 14.61Q221.75 14.45 222.06 14.34Q222.36 14.23 222.78 14.20Q223.19 14.16 223.78 14.16Q224.39 14.16 224.80 14.20Q225.22 14.23 225.48 14.32Q225.73 14.40 225.84 14.54Q225.95 14.67 225.95 14.89Q225.95 15.19 225.79 15.48Q225.63 15.77 225.27 16.16L217.31 24.12L226.25 35.72Q226.56 36.13 226.70 36.39Q226.83 36.65 226.83 36.87Z"/></g></g></svg>